<svg xmlns="http://www.w3.org/2000/svg" version="1.1" xmlns:xlink="http://www.w3.org/1999/xlink" xmlns:svgjs="http://svgjs.dev/svgjs" width="1000" height="1000"><g clip-path="url(#SvgjsClipPath1010)"><rect width="1000" height="1000" fill="#ffffff"></rect><g transform="matrix(50,0,0,50,150,275)"><svg xmlns="http://www.w3.org/2000/svg" version="1.1" xmlns:xlink="http://www.w3.org/1999/xlink" xmlns:svgjs="http://svgjs.dev/svgjs" width="14" height="9"><svg width="14" height="9" viewBox="0 0 14 9" fill="none" xmlns="http://www.w3.org/2000/svg">
<path d="M0.478782 8V0.727273H2.01642V3.93395H2.1123L4.72949 0.727273H6.57253L3.87367 3.98366L6.60449 8H4.765L2.77282 5.00994L2.01642 5.93324V8H0.478782ZM13.6464 4.36364C13.6464 5.15672 13.4961 5.83144 13.1954 6.38778C12.8971 6.94413 12.4899 7.36908 11.9738 7.66264C11.4601 7.95384 10.8824 8.09943 10.2409 8.09943C9.59455 8.09943 9.01453 7.95265 8.5008 7.65909C7.98707 7.36553 7.58105 6.94058 7.28276 6.38423C6.98446 5.82789 6.83532 5.15436 6.83532 4.36364C6.83532 3.57055 6.98446 2.89583 7.28276 2.33949C7.58105 1.78314 7.98707 1.35937 8.5008 1.06818C9.01453 0.774621 9.59455 0.627841 10.2409 0.627841C10.8824 0.627841 11.4601 0.774621 11.9738 1.06818C12.4899 1.35937 12.8971 1.78314 13.1954 2.33949C13.4961 2.89583 13.6464 3.57055 13.6464 4.36364ZM12.0874 4.36364C12.0874 3.84991 12.0105 3.41667 11.8566 3.06392C11.7051 2.71117 11.4909 2.44366 11.2139 2.26136C10.9369 2.07907 10.6125 1.98793 10.2409 1.98793C9.86917 1.98793 9.54483 2.07907 9.26784 2.26136C8.99086 2.44366 8.77542 2.71117 8.62154 3.06392C8.47002 3.41667 8.39426 3.84991 8.39426 4.36364C8.39426 4.87737 8.47002 5.31061 8.62154 5.66335C8.77542 6.0161 8.99086 6.28362 9.26784 6.46591C9.54483 6.6482 9.86917 6.73935 10.2409 6.73935C10.6125 6.73935 10.9369 6.6482 11.2139 6.46591C11.4909 6.28362 11.7051 6.0161 11.8566 5.66335C12.0105 5.31061 12.0874 4.87737 12.0874 4.36364Z" fill="#333333"></path>
</svg></svg></g></g><defs><clipPath id="SvgjsClipPath1010"><rect width="1000" height="1000" x="0" y="0" rx="350" ry="350"></rect></clipPath></defs></svg>